HIERARCHY
ROOT Hips
{
	OFFSET 0.000000 0.000000 0.000000 
	CHANNELS 6 Xposition Yposition Zposition Yrotation Zrotation Xrotation 
	JOINT Lumbar
	{
		OFFSET 0.000000 0.000000 0.000000 
		CHANNELS 3 Zrotation Xrotation Yrotation
		JOINT Neck
		{
			OFFSET 0.000000 0.445665 0.000000 
			CHANNELS 3 Zrotation Xrotation Yrotation
			End Site
			{
				OFFSET 0.000000 0.227535 0.000000 
			}
		}
		JOINT RightShoulder
		{
			OFFSET 0.019635 0.377685 0.194865 
			CHANNELS 3 Zrotation Xrotation Yrotation
			JOINT RightElbow
			{
				OFFSET 0.000000 -0.243375 0.000000 
				CHANNELS 2 Zrotation Yrotation
				JOINT RightWrist
				{
					OFFSET 0.000000 -0.264825 0.000000 
					CHANNELS 2 Zrotation Xrotation
					End Site
					{
						OFFSET 0.006600 -0.176220 0.000990 
					}
				}
			}
		}
		JOINT LeftShoulder
		{
			OFFSET 0.019635 0.377685 -0.194865 
			CHANNELS 3 Zrotation Xrotation Yrotation
			JOINT LeftElbow
			{
				OFFSET 0.000000 -0.243375 0.000000 
				CHANNELS 2 Zrotation Yrotation
				JOINT LeftWrist
				{
					OFFSET 0.000000 -0.264825 0.000000 
					CHANNELS 2 Zrotation Xrotation
					End Site
					{
						OFFSET 0.006600 -0.176220 -0.000990 
					}
				}
			}
		}
	}
	JOINT RightHip
	{
		OFFSET 0.052140 -0.069960 0.075570 
		CHANNELS 3 Zrotation Xrotation Yrotation
		JOINT RightKnee
		{
			OFFSET 0.000000 -0.402270 0.000000 
			CHANNELS 1 Zrotation
			JOINT RightAnkle
			{
				OFFSET 0.000000 -0.404085 0.000000 
				CHANNELS 3 Zrotation Xrotation Yrotation
				End Site
				{
					OFFSET 0.204105 -0.089430 0.008415 
				}
			}
		}
	}
	JOINT LeftHip
	{
		OFFSET 0.052140 -0.069960 -0.075570 
		CHANNELS 3 Zrotation Xrotation Yrotation
		JOINT LeftKnee
		{
			OFFSET 0.000000 -0.402270 0.000000 
			CHANNELS 1 Zrotation
			JOINT LeftAnkle
			{
				OFFSET 0.000000 -0.404085 0.000000 
				CHANNELS 3 Zrotation Xrotation Yrotation
				End Site
				{
					OFFSET 0.204105 -0.089430 -0.008415 
				}
			}
		}
	}
}
MOTION
Frames: 19
Frame Time: 0.02
-0.00191 -0.00125 0.00475 -18.56863 -15.16358 6.65035 36.41809 4.59492 -3.50236 -20.68282 -10.79926 -1.08436 -16.73895 -18.35353 7.96157 40.80058 81.47527 -9.22317 -2.92676 -30.80876 18.55095 -12.03241 45.05611 -85.19444 -11.3665 4.48349 26.06508 0.6716 -12.47537 -20.53772 -7.619 -3.00817 -3.73685 31.08093 11.13261 5.3446 -29.33678 -10.80112 3.03944 3.93992
-0.00123 -0.00149 0.00308 -18.25868 -15.23797 6.41146 36.62643 4.59545 -3.79013 -20.59875 -10.82821 -1.08574 -17.07012 -18.33275 7.74717 40.9948 81.46191 -9.19778 -2.92573 -29.80721 18.95543 -12.47049 46.49004 -85.26221 -11.43264 4.51453 26.17538 0.67968 -12.93686 -20.59083 -7.58903 -2.99406 -3.72943 31.14798 11.13321 5.42211 -29.09132 -10.68545 3.06235 3.94374
-0.00056 -0.00173 0.0014 -17.94941 -15.31226 6.17317 36.8342 4.5958 -4.07719 -20.51453 -10.85695 -1.08713 -17.40033 -18.31167 7.53329 41.18752 81.44838 -9.17151 -2.92436 -28.8075 19.35876 -12.90787 47.91948 -85.32862 -11.49749 4.54496 26.28554 0.68764 -13.3971 -20.64375 -7.55918 -2.98 -3.72205 31.2151 11.13389 5.49987 -28.84668 -10.57002 3.08511 3.94752
0.00011 -0.00197 -0.00027 -17.64036 -15.38644 5.93499 37.04192 4.5963 -4.36412 -20.43065 -10.88581 -1.08851 -17.73047 -18.2909 7.3195 41.38097 81.435 -9.14605 -2.92328 -27.8088 19.76202 -13.34472 49.34901 -85.39596 -11.56327 4.57582 26.39554 0.69567 -13.85721 -20.69669 -7.5293 -2.96593 -3.71466 31.28199 11.13451 5.57726 -28.60199 -10.45469 3.10793 3.95132
0.00078 -0.00221 -0.00194 -17.33078 -15.46067 5.69626 37.25015 4.59704 -4.65165 -20.34709 -10.9149 -1.08989 -18.06161 -18.27056 7.1053 41.57634 81.42193 -9.1218 -2.92268 -26.80885 20.16635 -13.78199 50.78294 -85.46519 -11.63069 4.60747 26.5056 0.70386 -14.31845 -20.74982 -7.49932 -2.9518 -3.70724 31.34871 11.13498 5.65412 -28.35645 -10.33919 3.13095 3.9552
0.00145 -0.00245 -0.00361 -17.02222 -15.53508 5.45888 37.45694 4.5966 -4.93767 -20.26148 -10.94289 -1.09127 -18.38986 -18.24795 6.89213 41.76351 81.40749 -9.09128 -2.91971 -25.80976 20.56754 -14.21958 52.20282 -85.52576 -11.69009 4.63533 26.61593 0.71134 -14.77652 -20.80228 -7.46974 -2.93789 -3.69994 31.41663 11.13608 5.7337 -28.11369 -10.22393 3.15316 3.95875
0.00213 -0.0027 -0.00528 -16.71184 -15.60905 5.21908 37.66645 4.59851 -5.22651 -20.18009 -10.97314 -1.09265 -18.72342 -18.22991 6.67699 41.96677 81.39563 -9.07345 -2.92149 -24.80979 20.97468 -14.6561 53.6496 -85.60338 -11.76572 4.67081 26.72564 0.72021 -15.24062 -20.85605 -7.43936 -2.92356 -3.69241 31.48212 11.13601 5.80797 -27.86565 -10.10829 3.17693 3.96294
0.0028 -0.00294 -0.00695 -16.40333 -15.68341 4.98147 37.87334 4.59829 -5.51261 -20.09479 -11.00115 -1.09403 -19.05236 -18.20768 6.46389 42.15554 81.38173 -9.04385 -2.9189 -23.81111 21.37621 -15.09349 55.07118 -85.66585 -11.82609 4.69922 26.83587 0.72785 -15.69886 -20.90859 -7.40974 -2.90962 -3.68509 31.54974 11.13685 5.88668 -27.62242 -9.99304 3.19935 3.96657
0.00346 -0.00316 -0.00864 -16.09617 -15.75838 4.74658 38.07757 4.5953 -5.79604 -20.0047 -11.02703 -1.09542 -19.3747 -18.18015 6.2523 42.32515 81.36393 -8.99996 -2.91088 -22.81143 21.77154 -15.53269 56.46412 -85.70732 -11.8688 4.71908 26.947 0.73379 -16.15134 -20.95973 -7.38098 -2.89611 -3.67801 31.62047 11.13945 5.97276 -27.38521 -9.87803 3.21975 3.96938
0.00417 -0.00345 -0.01027 -15.77842 -15.83025 4.49616 38.29878 4.60774 -6.09689 -19.94209 -11.06699 -1.09677 -19.73215 -18.18261 6.02906 42.60064 81.36436 -9.03856 -2.93381 -21.80973 22.20455 -15.96375 58.02841 -85.86213 -12.01608 4.78842 27.05374 0.7489 -16.64118 -21.01922 -7.34705 -2.88001 -3.66949 31.67483 11.1339 6.02231 -27.11378 -9.7609 3.25069 3.9765
0.00478 -0.00361 -0.01201 -15.48489 -15.90835 4.27846 38.48305 4.58797 -6.35962 -19.82163 -11.07612 -1.09821 -20.01733 -18.12217 5.8323 42.65559 81.32903 -8.90304 -2.89169 -20.81746 22.55675 -16.41043 59.22689 -85.78274 -11.94099 4.75324 27.16921 0.74507 -17.04944 -21.0609 -7.32418 -2.86945 -3.66407 31.76271 11.14428 6.14509 -26.91428 -9.64874 3.26007 3.97483
0.00509 -0.00343 -0.01403 -15.24306 -16.00669 4.15181 38.57418 4.47585 -6.52807 -19.53981 -11.00859 -1.09987 -20.08761 -17.88395 5.69301 42.07618 81.17133 -8.28705 -2.66765 -19.80953 22.69541 -16.91174 59.44677 -85.0129 -11.2659 4.42984 27.31378 0.6854 -17.25465 -21.05496 -7.33058 -2.87342 -3.66672 31.95226 11.20935 6.50284 -26.91627 -9.54607 3.20404 3.94609
0.0053 -0.00313 -0.01616 -15.02851 -16.11086 4.05781 38.62663 4.33208 -6.65635 -19.20041 -10.90842 -1.10164 -20.08847 -17.5834 5.58285 41.28109 80.98151 -7.49781 -2.37919 -18.81976 22.75114 -17.42523 59.2944 -84.01639 -10.36727 4.00218 27.46635 0.60737 -17.37419 -21.0309 -7.34827 -2.88303 -3.67253 32.17379 11.28847 6.92809 -26.98977 -9.44913 3.12749 3.90904
0.00558 -0.00288 -0.01825 -14.81081 -16.21012 3.94802 38.69154 4.20541 -6.79628 -18.88904 -10.81826 -1.10338 -20.13187 -17.31492 5.46962 40.60325 80.82311 -6.78819 -2.12212 -17.84746 22.83984 -17.92714 59.29626 -83.15524 -9.56218 3.6226 27.61169 0.54036 -17.5192 -21.01436 -7.36151 -2.89051 -3.67721 32.37421 11.35387 7.29985 -27.02779 -9.35225 3.06445 3.87772
0.00579 -0.00264 -0.02029 -14.55321 -16.31834 3.84223 38.77831 4.06734 -6.96398 -18.5696 -10.74925 -1.10502 -20.12846 -17.03103 5.31467 39.84219 80.59651 -6.06994 -1.85494 -16.76238 22.94945 -18.46005 59.36151 -82.15846 -8.78387 3.23811 27.77153 0.46226 -17.7204 -21.00088 -7.37192 -2.89631 -3.68072 32.60199 11.4499 7.76686 -27.07834 -9.24416 2.98385 3.8382
0.00611 -0.00234 -0.02247 -14.38634 -16.41003 3.73595 38.80997 3.94533 -7.06433 -18.25345 -10.62737 -1.10692 -20.20642 -16.76384 5.25211 39.2053 80.50074 -5.33432 -1.59486 -15.92183 22.99439 -18.92445 59.20513 -81.38872 -7.90525 2.84135 27.90395 0.4026 -17.78487 -20.97665 -7.39087 -2.90675 -3.6873 32.78099 11.48591 8.05297 -27.11999 -9.16074 2.93478 3.81372
0.00676 -0.00194 -0.02503 -14.45347 -16.44848 3.61935 38.70249 3.87709 -6.98875 -17.95975 -10.37706 -1.10947 -20.52329 -16.56355 5.44903 38.94851 80.80572 -4.54431 -1.35778 -15.70695 22.89386 -19.25536 58.53981 -81.31617 -6.73186 2.41611 27.95139 0.40085 -17.48828 -20.92789 -7.4308 -2.93023 -3.70255 32.81216 11.34905 7.81102 -27.11715 -9.14422 2.97938 3.83345
0.00751 -0.00149 -0.02773 -14.61285 -16.47138 3.50131 38.54015 3.82583 -6.84689 -17.67161 -10.07317 -1.11232 -20.92481 -16.38121 5.73535 38.82728 81.23793 -3.7516 -1.13147 -15.74621 22.72881 -19.50629 57.66165 -81.47655 -5.47825 1.98503 27.97254 0.41771 -17.05829 -20.86884 -7.47889 -2.95782 -3.72057 32.79429 11.15212 7.38766 -27.10333 -9.15224 3.05609 3.86844
0.00821 -0.00106 -0.03038 -14.73639 -16.50532 3.3845 38.40071 3.76561 -6.73502 -17.38129 -9.78718 -1.11504 -21.2896 -16.187 5.97375 38.65399 81.59069 -2.99266 -0.90957 -15.69839 22.58484 -19.75489 56.87382 -81.52149 -4.30973 1.57093 28.01029 0.42459 -16.69183 -20.81399 -7.52317 -2.98252 -3.73672 32.80213 10.98499 7.05424 -27.09608 -9.14898 3.11714 3.89606
